<svg id="レイヤー_1" data-name="レイヤー 1" xmlns="http://www.w3.org/2000/svg" viewBox="0 0 894.74 654.42"><path d="M637.08,358.09q-4.86-5.2-9.91-10.25Q615,335.75,601.93,324.89a366.52,366.52,0,0,0-47.76-33.62l1-37.81v-1.4h0a5.61,5.61,0,0,0-.19-1.58,3.89,3.89,0,0,0-.25-.75,5.62,5.62,0,0,0-.79-1.36,5.39,5.39,0,0,0-.39-.43,5.24,5.24,0,0,0-1.45-1.07q-5.68-2.94-11.46-5.67-8.68-4.11-17.56-7.85-4.77-2-9.6-3.85c-1.53-.59-3.06-1.18-4.61-1.76q-6.9-2.58-13.93-5l-3.56-1.24-4.25-1.37q-6.42-2-12.9-3.79-6.28-1.72-12.64-3.27-3.17-.76-6.37-1.47a4.43,4.43,0,0,0-.73-.11h-1.71a5.91,5.91,0,0,0-.69.19h-.07l-.59.26-.21.12a4.78,4.78,0,0,0-.42.26l-.21.15-.4.32-.17.15a6.28,6.28,0,0,0-.49.54L425.1,244.26A374.8,374.8,0,0,0,365,239.44a370.22,370.22,0,0,0-224,75.21h0c-3.2,2.48-5,3.72-8.09,6.31a9.47,9.47,0,0,0,6.66,16.15,9.63,9.63,0,0,0,6.85-2.73l3.24-2.48h0q4.62-3.57,9.35-7A353.88,353.88,0,0,1,420.93,263h.25c2.08.33,4.15.69,6.2,1a9.51,9.51,0,0,0,9.12-3.43h0l9.66-12.13h0l9.22-11.57a9.5,9.5,0,0,1,9.91-3.27,387.1,387.1,0,0,1,65.1,23.61,9.43,9.43,0,0,1,5.45,8.83l-.39,14.78-.2,6.95-.25,8.55h0a9.49,9.49,0,0,0,4.77,8.46l.15.09q-2.52-1.44-5.07-2.85h0q2.55,1.41,5.07,2.85l5.24,3.05h.06l.23.11q13.09,7.89,25.48,16.83t24,18.95h0q7.83,6.74,15.31,14a4.73,4.73,0,0,1,.14,6.68l-.08.08L409.93,564.32l-3.11,3.08h0a9.5,9.5,0,0,0,13.09,13.78h0l.08-.07h0c1.33-1.3,2.12-2.1,3.36-3.34L635,366.85l1.54-1.54c.22-.21.43-.42.63-.64A4.84,4.84,0,0,0,637.08,358.09Z" transform="translate(-128.41 -211.54)"/><path d="M601.68,852.31a6.59,6.59,0,0,0-.93-1.24L486.27,735.17a5.74,5.74,0,0,0-3.71-1.69,135.31,135.31,0,0,0-17.67.2c-71.65,5.62-94.16,66.34-160,69.48-31.28,1.5-60.34-10.62-81.38-22.86l85.78-90.58a8.38,8.38,0,0,0-.16-11.87,6.28,6.28,0,0,0-.67-.59,10,10,0,0,0-13.42.78L130.78,851.27a8.35,8.35,0,0,0-1.54,9.47,9.57,9.57,0,0,0,8.67,5.21h455.4a9.19,9.19,0,0,0,9.51-8.84,15.8,15.8,0,0,0-.3-2.16A8.75,8.75,0,0,0,601.68,852.31Z" transform="translate(-128.41 -211.54)"/><path d="M360.31,532l-127-126.51a4.15,4.15,0,0,1,0-5.87c.11-.11.24-.22.36-.32,34.19-27.38,61-31.75,79.62-30.23,46.38,3.77,65.34,45.84,116.46,49.75A107.41,107.41,0,0,0,475.22,412a4.15,4.15,0,0,1,4.4,6.82L366.12,531.93A4.18,4.18,0,0,1,360.31,532Z" transform="translate(-128.41 -211.54)"/><path d="M365.62,607.5s-21.92,35.8-21.92,48.7c0,11.51,9.81,18.77,21.92,18.77s21.95-7.26,21.95-18.77C387.57,644,365.62,607.5,365.62,607.5Z" transform="translate(-128.41 -211.54)"/><path d="M773,507.52a6,6,0,1,0-9.22,7.57h0s1.24,2.77-3.71,12.76c-8.67,17.43-31.51,46.17-59.47,75C676.49,627.66,660.34,640.67,652,646c3-8.24,9.44-22,14.87-33.65,24.11-51.38,40-88.72,24.38-101.07-7.2-5.7-23.16-3.88-26.28-3.46-17.16,2.33-21.42,8.43-22,13.14-.49,4.18,1.71,8.12,6.51,11.72a6,6,0,0,0,7.53-9.28l-.39-.29-.79-.63a38.51,38.51,0,0,1,10.71-2.82c8.48-1.16,15.76-.22,17.26,1,.89.71,5,5.5-3.64,30.53-5.91,17.35-15.59,37.92-24.14,56.12-16.3,34.77-20,44.23-16.41,50.09a7.4,7.4,0,0,0,6.19,3.53h.35c3.64,0,9.91-1.87,26-15.06a474.24,474.24,0,0,0,36.31-34c23.21-23.85,51.85-57.25,62.65-79.49C773.2,528.12,779.42,515.32,773,507.52Z" transform="translate(-128.41 -211.54)"/><path d="M785.36,572.35a8.88,8.88,0,1,0-8.87-8.89v0A8.89,8.89,0,0,0,785.36,572.35Z" transform="translate(-128.41 -211.54)"/><path d="M1021.13,615a6,6,0,0,0-8.41.47v0c-21.21,23.76-31.25,31.72-35.7,34.38a159.12,159.12,0,0,1,5.32-16.67c6.51-18.26,13.89-39,2.23-47.65a18.35,18.35,0,0,0-12.31-3.14,22.38,22.38,0,0,0-7.66,1.92c16.8-19.55,30.52-36.87,35.44-43.16l.27-.33a33,33,0,0,0,2.48-3.72l.06-.1c.08-.13.81-1.35,1.4-2.55a28.86,28.86,0,0,0,2.92-11.26c.07-2.9.22-8.91-4.08-13.63-5.19-5.68-13.63-6.19-19.72-4.09a21.45,21.45,0,0,0-6.29,3.58c-2.6,2.21-8.67,7.44-32.43,72.69-1.46,4-2.91,8.05-4.34,12.06q-3.57,4-7.21,7.91c-45.48,49.19-58,49.44-60.25,48.89-.06-1.24.41-4.95,4.7-14.87,4.14-9.59,10.77-22.75,19.93-41,1.38-2.74,2.82-5.59,4.29-8.54h19.82a6,6,0,1,0,.55-11.93H907.76q3.09-6.2,6.46-13a6,6,0,0,0-10.7-5.29c-3.21,6.51-6.2,12.59-9.11,18.3H877.49a6,6,0,1,0-.54,11.93h11.47l-1.59,3.18-3.21,6.36c-5.47,5.59-51.91,44.36-62,51.75a17.46,17.46,0,0,1-4.4,2.61c-.12-4.06,6-15.58,9-21.28,5.38-10.13,8.15-15.63,7.62-20.23a10.45,10.45,0,0,0-4-7.25c-4.69-3.58-11.31-2.62-17.18-1.76h0c.78-.89,1.56-1.79,2.34-2.71a6,6,0,0,0-9-7.78h0c-23.75,27.62-41,44.6-51.31,53.54,2.34-4.61,5.08-9.66,7.31-13.76,12.16-22.43,16.56-31.45,14.31-37.16a7.25,7.25,0,0,0-4.46-4.3c-2.1-.71-5.24-1.79-20.44,10.29-5.51,4.39-15.85,13.26-23.21,23.45a6,6,0,0,0,9.68,7h0c6.35-8.81,15.72-17.12,22.95-22.65-2.85,5.81-6.59,12.71-9.33,17.76-4,7.43-7.81,14.4-10.43,20.1-2.48,5.44-6.27,13.63-.47,17.78a6.57,6.57,0,0,0,4,1.36c4.29,0,10.75-4,23.89-16.1,7.28-6.75,18.69-18,34.32-35.45,3,1.84,7.34,1.24,11.54.57a44.17,44.17,0,0,1,7.44-.67,108.8,108.8,0,0,1-6,12.49c-7,13.23-13.63,25.74-8.56,33.69a11.79,11.79,0,0,0,5,4.29,11,11,0,0,0,4.49.95c5.26,0,10-3.49,12.12-5,4.86-3.55,24.88-19.82,41.43-33.81-2.13,4.55-3.9,8.55-5.26,12-2.59,6.52-7.44,18.59.44,24.6,9.91,7.52,24.78-2.3,35.08-10.32a312.47,312.47,0,0,0,30.22-27.87c-5,14.49-9,26.54-11.15,33h0c-.09.3-.14.47-.16.51a6,6,0,0,0,11.48,3.23c.53-1.61,1.06-3.2,1.58-4.79a242.07,242.07,0,0,1,13.21-29.73c9.85-18.45,19.82-29.28,27.39-29.74a7,7,0,0,1,4.47.79c1.52,1.13,1.8,5.17.76,10.81-1.24,7-4.24,15.25-7.09,23.27-5.67,15.88-9.76,27.36-2.23,32.39A9,9,0,0,0,974,663.2c5,0,10.45-3.62,15-7.15,8-6.28,18.72-16.93,32.65-32.56a6,6,0,0,0-.43-8.41Zm-36.32-96.76a10,10,0,0,1,2.41-1.39,10.17,10.17,0,0,1,3-.47,5.53,5.53,0,0,1,4,1.32c1.06,1.16,1,3.63,1,5.29a17.29,17.29,0,0,1-1.65,6.19c-.34.67-.82,1.49-1,1.75l-.1.17a23.52,23.52,0,0,1-1.61,2.37l-.27.35c-4.2,5.36-14.87,18.85-28.41,34.87,11.8-31.15,19.54-47.78,22.58-50.45Z" transform="translate(-128.41 -211.54)"/></svg>