<?xml version="1.0" encoding="utf-8"?>
<!-- Generator: Adobe Illustrator 26.0.2, SVG Export Plug-In . SVG Version: 6.00 Build 0)  -->
<svg version="1.1" id="レイヤー_1" xmlns="http://www.w3.org/2000/svg" xmlns:xlink="http://www.w3.org/1999/xlink" x="0px"
	 y="0px" viewBox="0 0 512 868.92" style="enable-background:new 0 0 512 868.92;" xml:space="preserve">
<g>
	<path d="M191.16,711.54c-2.09-2.55-5.85-2.91-8.39-0.82c-2.55,2.09-2.91,5.85-0.82,8.39l0,0c0,0,1.24,2.78-3.72,12.76
		c-8.67,17.43-31.51,46.17-59.47,75.03c-24.07,24.78-40.22,37.79-48.53,43.1c2.99-8.24,9.44-21.99,14.87-33.65
		c24.11-51.38,39.98-88.72,24.38-101.07c-7.2-5.7-23.16-3.88-26.28-3.46c-17.16,2.33-21.42,8.42-21.97,13.13
		c-0.48,4.19,1.71,8.13,6.52,11.72c2.56,2.08,6.32,1.69,8.4-0.87c2.08-2.56,1.69-6.32-0.87-8.4c-0.13-0.1-0.26-0.2-0.39-0.29
		l-0.79-0.63c3.42-1.45,7.03-2.41,10.72-2.82c8.47-1.15,15.76-0.21,17.26,0.98c0.89,0.71,4.96,5.5-3.64,30.53
		c-5.91,17.34-15.59,37.92-24.13,56.12c-16.3,34.76-20.05,44.23-16.42,50.09c1.33,2.16,3.66,3.49,6.19,3.53h0.35
		c3.64,0,9.91-1.87,26.02-15.07c12.69-10.69,24.81-22.04,36.31-34c23.21-23.85,51.85-57.25,62.65-79.49
		C191.39,732.14,197.61,719.34,191.16,711.54z"/>
	<path d="M203.56,776.37c4.91,0.01,8.89-3.96,8.9-8.87c0.01-4.91-3.96-8.89-8.87-8.9c-4.91-0.01-8.89,3.96-8.9,8.87
		c0,0.01,0,0.02,0,0.02C194.69,772.4,198.66,776.36,203.56,776.37z"/>
	<path d="M439.32,819.05c-2.45-2.19-6.22-1.98-8.41,0.47c0,0-0.01,0.01-0.01,0.01c-21.21,23.76-31.25,31.73-35.69,34.38
		c1.46-5.65,3.24-11.21,5.31-16.66c6.52-18.26,13.89-38.96,2.23-47.65c-3.6-2.48-7.96-3.6-12.3-3.15c-2.65,0.18-5.25,0.83-7.67,1.92
		c16.8-19.55,30.53-36.87,35.45-43.15l0.27-0.33c0.9-1.18,1.73-2.43,2.48-3.72l0.06-0.1c0.07-0.14,0.81-1.35,1.4-2.55
		c1.72-3.52,2.71-7.35,2.91-11.26c0.07-2.9,0.22-8.91-4.08-13.63c-5.19-5.69-13.63-6.19-19.72-4.09c-2.28,0.83-4.41,2.04-6.28,3.58
		c-2.6,2.21-8.67,7.43-32.43,72.69c-1.46,4.01-2.91,8.05-4.34,12.05c-2.38,2.65-4.79,5.29-7.21,7.92
		c-45.48,49.19-58.02,49.43-60.25,48.89c-0.06-1.24,0.41-4.96,4.7-14.87c4.14-9.59,10.77-22.76,19.93-40.98
		c1.38-2.74,2.81-5.59,4.29-8.54h19.82c3.29,0.15,6.09-2.4,6.24-5.69c0.15-3.29-2.4-6.09-5.69-6.24c-0.18-0.01-0.36-0.01-0.54,0
		h-13.83c2.06-4.13,4.22-8.47,6.47-13.01c1.39-2.99,0.1-6.54-2.89-7.94c-2.89-1.35-6.34-0.18-7.82,2.65
		c-3.21,6.5-6.19,12.59-9.11,18.3h-16.92c-3.29-0.15-6.09,2.4-6.24,5.69c-0.15,3.29,2.4,6.09,5.69,6.24c0.18,0.01,0.36,0.01,0.54,0
		h10.93l-1.59,3.17l-3.21,6.37c-5.48,5.59-51.91,44.35-62.02,51.75c-1.33,1.08-2.81,1.95-4.4,2.6c-0.12-4.05,5.98-15.57,9.01-21.27
		c5.38-10.13,8.15-15.64,7.62-20.23c-0.27-2.86-1.72-5.48-3.99-7.25c-4.7-3.58-11.31-2.63-17.18-1.76l0,0
		c0.78-0.89,1.57-1.8,2.34-2.71c2.15-2.5,1.87-6.26-0.63-8.41c-2.5-2.15-6.26-1.87-8.41,0.63l0,0
		c-23.75,27.62-40.98,44.6-51.32,53.53c2.34-4.61,5.08-9.65,7.31-13.75c12.17-22.44,16.56-31.46,14.31-37.17
		c-0.77-2.03-2.41-3.6-4.46-4.3c-2.09-0.71-5.24-1.78-20.44,10.3c-5.5,4.39-15.85,13.26-23.21,23.45c-1.93,2.67-1.32,6.4,1.35,8.33
		c2.67,1.93,6.4,1.32,8.33-1.35l0,0c6.36-8.81,15.72-17.12,22.96-22.65c-2.85,5.81-6.59,12.71-9.33,17.75
		c-4.01,7.43-7.82,14.41-10.43,20.11c-2.48,5.44-6.27,13.63-0.47,17.78c1.15,0.88,2.55,1.35,3.99,1.36
		c4.29,0,10.75-3.99,23.89-16.11c7.28-6.75,18.7-18.01,34.32-35.45c3.05,1.83,7.35,1.24,11.55,0.57c2.45-0.43,4.94-0.66,7.43-0.67
		c-1.75,4.29-3.76,8.46-6.03,12.49c-7.02,13.23-13.63,25.73-8.56,33.69c1.21,1.87,2.93,3.36,4.96,4.29c1.41,0.63,2.95,0.96,4.5,0.95
		c5.25,0,10.04-3.49,12.12-4.96c4.86-3.56,24.88-19.82,41.43-33.81c-2.13,4.55-3.9,8.55-5.27,11.98
		c-2.59,6.52-7.43,18.58,0.45,24.59c9.91,7.52,24.78-2.29,35.07-10.32c10.68-8.61,20.78-17.92,30.23-27.86
		c-4.96,14.48-8.99,26.54-11.15,32.98l0,0c-0.1,0.3-0.15,0.47-0.16,0.51c-0.69,3.22,1.36,6.4,4.58,7.09
		c2.94,0.63,5.89-1.02,6.89-3.86c0.53-1.61,1.07-3.21,1.59-4.79c3.73-10.2,8.14-20.13,13.21-29.73
		c9.85-18.45,19.82-29.28,27.39-29.73c1.54-0.24,3.11,0.04,4.47,0.79c1.51,1.13,1.8,5.17,0.76,10.8
		c-1.24,6.98-4.24,15.25-7.09,23.27c-5.67,15.88-9.76,27.37-2.23,32.4c1.52,1.03,3.31,1.57,5.14,1.55c5.02,0,10.44-3.62,14.94-7.15
		c8.03-6.28,18.72-16.94,32.66-32.56c2.2-2.44,2.01-6.21-0.43-8.42C439.36,819.08,439.34,819.07,439.32,819.05z M403,722.29
		c0.74-0.57,1.55-1.04,2.42-1.39c0.98-0.32,2.01-0.48,3.05-0.47c1.46-0.11,2.9,0.36,4.01,1.31c1.05,1.16,0.99,3.63,0.95,5.29
		c-0.16,2.15-0.72,4.25-1.65,6.19c-0.33,0.67-0.82,1.49-0.97,1.75l-0.1,0.17c-0.49,0.82-1.03,1.61-1.61,2.37l-0.27,0.35
		c-4.2,5.36-14.87,18.86-28.41,34.88C392.22,741.59,399.96,724.96,403,722.29L403,722.29z"/>
	<path d="M509.67,148.25c-3.24-3.47-6.54-6.88-9.91-10.25c-8.1-8.06-16.51-15.71-25.24-22.96c-15-12.46-30.97-23.69-47.76-33.61
		l1.04-37.81v-1.4l0,0c0.01-0.53-0.05-1.07-0.19-1.59c-0.06-0.25-0.14-0.5-0.25-0.74c-0.2-0.49-0.47-0.95-0.79-1.36
		c-0.12-0.15-0.26-0.3-0.4-0.43c-0.42-0.43-0.91-0.79-1.45-1.07c-3.78-1.96-7.6-3.85-11.46-5.67c-5.78-2.73-11.63-5.35-17.56-7.84
		c-3.18-1.33-6.38-2.6-9.6-3.85c-1.52-0.59-3.06-1.18-4.61-1.76c-4.6-1.72-9.24-3.37-13.93-4.96l-3.57-1.24l-4.25-1.36
		c-4.28-1.33-8.58-2.59-12.9-3.79c-4.19-1.16-8.4-2.25-12.64-3.27c-2.11-0.51-4.24-1-6.37-1.47c-0.24-0.06-0.48-0.09-0.73-0.11
		h-0.22h-0.28h-0.22h-0.25h-0.52h-0.21c-0.24,0.05-0.47,0.12-0.69,0.2h-0.07c-0.2,0.07-0.39,0.16-0.58,0.26l-0.21,0.11
		c-0.14,0.08-0.29,0.17-0.42,0.26l-0.21,0.15L322.83,3l-0.17,0.15c-0.17,0.17-0.34,0.35-0.5,0.55l-24.47,30.73
		c-19.88-3.22-39.98-4.83-60.11-4.82c-80.86-0.06-159.52,26.36-223.96,75.21l0,0c-3.21,2.48-4.96,3.72-8.09,6.31
		c-3.69,3.7-3.69,9.69,0.01,13.39c1.76,1.76,4.15,2.76,6.65,2.77c2.56,0.03,5.02-0.95,6.85-2.74l3.25-2.48l0,0
		c3.07-2.38,6.19-4.71,9.34-6.99c59.98-43.23,132.06-66.45,206-66.33c18.72-0.01,37.42,1.46,55.91,4.4h0.25
		c2.08,0.33,4.15,0.69,6.19,1.05c3.44,0.62,6.94-0.7,9.12-3.43l0,0l9.66-12.13l0,0l9.22-11.57c2.36-2.97,6.25-4.25,9.91-3.27
		c22.36,5.91,44.15,13.82,65.11,23.61c3.42,1.59,5.56,5.06,5.45,8.83l-0.4,14.78l-0.2,6.95l-0.25,8.55l0,0l0,0
		c-0.08,3.48,1.75,6.73,4.77,8.46l0.15,0.09c-1.68-0.97-3.37-1.91-5.07-2.85l0,0c1.7,0.94,3.38,1.88,5.07,2.85l5.24,3.05h0.06
		l0.22,0.11c8.73,5.26,17.23,10.87,25.48,16.82s16.25,12.27,23.99,18.96l0,0c5.23,4.49,10.33,9.16,15.31,14.01
		c1.88,1.8,1.94,4.79,0.14,6.67c-0.03,0.03-0.05,0.05-0.08,0.08L282.53,354.48l-3.11,3.08l0,0c-3.8,3.61-3.96,9.63-0.35,13.43
		c3.61,3.8,9.63,3.96,13.43,0.35l0,0l0,0l0.09-0.07l0,0c1.33-1.3,2.12-2.09,3.36-3.33l211.63-210.93l1.54-1.54
		c0.22-0.21,0.43-0.42,0.63-0.64C511.45,152.95,511.41,150.08,509.67,148.25z"/>
	<path d="M474.27,642.47c-0.26-0.45-0.57-0.86-0.93-1.24l-114.48-115.9c-0.99-1-2.31-1.6-3.72-1.68c-5.89-0.32-11.79-0.26-17.67,0.2
		c-71.65,5.62-94.16,66.34-159.96,69.48c-31.28,1.5-60.35-10.62-81.38-22.86l85.78-90.58c3.24-3.32,3.16-8.64-0.16-11.88
		c-0.21-0.21-0.44-0.4-0.67-0.59c-4.01-3.23-9.81-2.89-13.42,0.78L3.37,641.43c-2.46,2.52-3.07,6.31-1.54,9.48
		c1.66,3.25,5.03,5.26,8.67,5.2H465.9c5.06,0.18,9.32-3.77,9.51-8.83c-0.05-0.73-0.15-1.45-0.3-2.17
		C474.98,644.19,474.69,643.3,474.27,642.47z"/>
	<path d="M232.91,322.11L105.92,195.6c-1.62-1.62-1.63-4.25-0.01-5.87c0.12-0.12,0.24-0.22,0.37-0.33
		c34.18-27.38,60.95-31.74,79.61-30.23c46.39,3.78,65.34,45.84,116.46,49.76c15.46,1.05,30.97-1.24,45.47-6.74
		c2.15-0.8,4.54,0.28,5.34,2.43c0.57,1.52,0.2,3.23-0.94,4.38l-113.5,113.09C237.1,323.66,234.53,323.67,232.91,322.11z"/>
	<path d="M238.21,397.66c0,0-21.92,35.8-21.92,48.7c0,11.51,9.81,18.77,21.92,18.77s21.95-7.26,21.95-18.77
		C260.16,434.12,238.21,397.66,238.21,397.66z"/>
</g>
</svg>
