<svg id="レイヤー_1" data-name="レイヤー 1" xmlns="http://www.w3.org/2000/svg" viewBox="0 0 310.5 128.08"><path d="M251.59,357.82a4.81,4.81,0,1,0-7.43,6.11s1.05,2.25-3,10.31c-7,14.06-25.42,37.26-48,60.55-19.43,20-32.45,30.5-39.16,34.8,2.41-6.66,7.62-17.76,12-27.17,19.46-41.47,32.26-71.6,19.67-81.58-5.8-4.6-18.68-3.13-21.2-2.78-13.86,1.88-17.29,6.79-17.73,10.59-.39,3.38,1.38,6.56,5.26,9.46a4.82,4.82,0,0,0,5.76-7.72c-.25-.18-.46-.36-.64-.51a31.08,31.08,0,0,1,8.64-2.28c6.85-.93,12.73-.17,13.93.79.72.57,4,4.44-2.94,24.64-4.76,14-12.58,30.61-19.47,45.3C144.14,466.39,141.11,474,144,478.76a6,6,0,0,0,5,2.85h.21c2.93,0,8-1.5,21-12.16A381.26,381.26,0,0,0,199.56,442c18.73-19.24,41.86-46.21,50.58-64.16C251.79,374.45,256.81,364.12,251.59,357.82Z" transform="translate(-143.02 -355.37)"/><path d="M261.61,410.15a7.16,7.16,0,1,0-7.16-7.16A7.16,7.16,0,0,0,261.61,410.15Z" transform="translate(-143.02 -355.37)"/><path d="M451.9,444.6a4.81,4.81,0,0,0-6.8.39c-17.11,19.18-25.21,25.61-28.81,27.75a133.37,133.37,0,0,1,4.29-13.45c5.26-14.74,11.22-31.44,1.81-38.46a14.74,14.74,0,0,0-9.94-2.53,17.89,17.89,0,0,0-6.18,1.54c13.55-15.78,24.64-29.76,28.61-34.82l.22-.28a27.23,27.23,0,0,0,2-2.95l0-.09c.07-.11.66-1.09,1.14-2.05a23.08,23.08,0,0,0,2.34-9.1c.06-2.33.18-7.18-3.29-11-4.18-4.58-11-5-15.92-3.3a17.39,17.39,0,0,0-5.07,2.89c-2.1,1.78-7,6-26.17,58.67q-1.77,4.88-3.5,9.73-2.9,3.21-5.82,6.39c-36.71,39.7-46.83,39.91-48.63,39.46-.06-1,.32-4,3.79-12,3.34-7.74,8.69-18.37,16.09-33.08l3.46-6.88h16a4.82,4.82,0,0,0,0-9.64H360.39c1.68-3.34,3.41-6.83,5.22-10.49a4.81,4.81,0,0,0-8.63-4.27q-3.9,7.86-7.35,14.76H336a4.82,4.82,0,0,0,0,9.64h8.83c-.43.86-.86,1.72-1.29,2.56-.89,1.76-1.74,3.47-2.58,5.13-4.43,4.51-41.9,35.8-50.07,41.77a14,14,0,0,1-3.54,2.1c-.1-3.27,4.83-12.57,7.27-17.17,4.34-8.18,6.58-12.62,6.15-16.32a8.37,8.37,0,0,0-3.23-5.85c-3.78-2.9-9.13-2.13-13.86-1.43v0l1.89-2.19a4.81,4.81,0,1,0-7.3-6.28c-19.17,22.29-33.08,36-41.43,43.21,1.9-3.71,4.11-7.79,5.91-11.1,9.82-18.1,13.36-25.39,11.55-30a5.88,5.88,0,0,0-3.61-3.47c-1.68-.58-4.22-1.44-16.49,8.3-4.45,3.54-12.8,10.7-18.74,18.93a4.82,4.82,0,0,0,7.82,5.64c5.13-7.11,12.69-13.83,18.52-18.28-2.29,4.69-5.31,10.26-7.52,14.32-3.25,6-6.31,11.63-8.42,16.23-2,4.39-5.07,11-.39,14.35a5.4,5.4,0,0,0,3.23,1.1c3.45,0,8.68-3.22,19.27-13,5.89-5.44,15.09-14.53,27.7-28.61,2.47,1.48,5.94,1,9.33.46a36.25,36.25,0,0,1,6-.54,88.74,88.74,0,0,1-4.88,10.08c-5.66,10.68-11,20.77-6.9,27.19a9.51,9.51,0,0,0,3.95,3.46,8.72,8.72,0,0,0,3.63.77c4.25,0,8.1-2.82,9.79-4,3.92-2.87,20.08-16.05,33.44-27.29-1.72,3.68-3.15,6.9-4.25,9.67-2.09,5.26-6,15,.35,19.85,8,6.07,20-1.85,28.31-8.33a249.47,249.47,0,0,0,24.4-22.49c-4,11.7-7.25,21.42-9,26.62h0a3.38,3.38,0,0,0-.12.41,4.81,4.81,0,0,0,9.26,2.61c.43-1.3.85-2.59,1.28-3.86a196.53,196.53,0,0,1,10.65-24c8-14.89,16-23.63,22.12-24a5.68,5.68,0,0,1,3.61.64c1.22.91,1.45,4.17.61,8.72-1,5.63-3.42,12.32-5.73,18.78-4.57,12.82-7.88,22.09-1.79,26.15a7.28,7.28,0,0,0,4.15,1.25c4.05,0,8.42-2.92,12.05-5.76,6.49-5.08,15.12-13.67,26.37-26.29A4.81,4.81,0,0,0,451.9,444.6Zm-29.32-78.09a7.74,7.74,0,0,1,2-1.12A7.87,7.87,0,0,1,427,365a4.44,4.44,0,0,1,3.23,1.06c.86.94.81,2.93.78,4.27a14.11,14.11,0,0,1-1.34,5c-.26.53-.65,1.2-.78,1.41l-.08.13a15.39,15.39,0,0,1-1.29,1.91l-.22.28c-3.39,4.33-12,15.22-22.93,28.15C413.89,382.08,420.14,368.65,422.58,366.51Z" transform="translate(-143.02 -355.37)"/></svg>