<svg id="レイヤー_1" data-name="レイヤー 1" xmlns="http://www.w3.org/2000/svg" viewBox="0 0 411.65 528.21"><path d="M502.43,275q-3.9-4.2-8-8.27-9.81-9.78-20.36-18.53A298,298,0,0,0,435.51,221l.84-30.51,0-1.13h0a4.54,4.54,0,0,0-.15-1.28,4.35,4.35,0,0,0-.2-.61,4.59,4.59,0,0,0-.64-1.09l-.32-.36a4.6,4.6,0,0,0-1.17-.86q-4.57-2.35-9.25-4.57-7-3.33-14.17-6.33c-2.56-1.07-5.15-2.1-7.74-3.11-1.24-.48-2.48-1-3.72-1.42-3.72-1.4-7.47-2.72-11.24-4l-2.89-.95-3.43-1.09c-3.45-1.07-6.91-2.1-10.41-3.06s-6.77-1.81-10.19-2.64q-2.57-.61-5.15-1.2a5.81,5.81,0,0,0-.58-.09h-.8c-.14,0-.28,0-.41.06l-.17,0a5.12,5.12,0,0,0-.56.15l-.07,0a4,4,0,0,0-.47.21,1.4,1.4,0,0,0-.17.09,3.13,3.13,0,0,0-.34.21l-.17.12-.32.26-.14.12a5.66,5.66,0,0,0-.4.44l-19.75,24.8a302,302,0,0,0-48.52-3.89A298.66,298.66,0,0,0,102.05,239.9h0c-2.6,2-4,3-6.54,5.09a7.63,7.63,0,0,0,5.39,13.08,7.73,7.73,0,0,0,5.52-2.21l2.62-2,0,0q3.72-2.88,7.53-5.63a283.6,283.6,0,0,1,166.24-53.52A286.81,286.81,0,0,1,328,198.2l.19,0c1.68.27,3.35.55,5,.85a7.68,7.68,0,0,0,7.36-2.77l0,0h0l7.79-9.79h0l7.44-9.33a7.7,7.7,0,0,1,8-2.65,314.73,314.73,0,0,1,52.54,19.06,7.66,7.66,0,0,1,4.41,7.14l-.33,11.93-.15,5.61-.19,6.87h0A7.62,7.62,0,0,0,423.9,232l.11.06c-1.36-.77-2.72-1.54-4.09-2.29h0q2.06,1.13,4.09,2.3t4.23,2.46l.05,0,.19.1q10.59,6.3,20.6,13.52t19.37,15.29h0q6.32,5.46,12.36,11.31a3.83,3.83,0,0,1,0,5.46L319.09,441.42l-2.51,2.5h0a7.61,7.61,0,0,0-2.42,6.48,7.68,7.68,0,0,0,13,4.6h0l.07-.07,0,0,2.71-2.69L500.74,282,502,280.8c.18-.17.35-.35.51-.53A3.89,3.89,0,0,0,502.43,275Z" transform="translate(-91.86 -156.71)"/><path d="M473.86,673.88a5.17,5.17,0,0,0-.75-1l-92.4-93.55a4.59,4.59,0,0,0-3-1.36,108.17,108.17,0,0,0-14.26.16c-57.82,4.54-76,53.55-129.11,56.08-25.25,1.21-48.71-8.57-65.68-18.45l69.24-73.11a6.78,6.78,0,0,0-.68-10.06,8.07,8.07,0,0,0-10.83.63L93.78,673.07a6.72,6.72,0,0,0-1.24,7.65,7.71,7.71,0,0,0,7,4.2H467.11a7.42,7.42,0,0,0,7.67-7.13,13.39,13.39,0,0,0-.23-1.76A6.8,6.8,0,0,0,473.86,673.88Z" transform="translate(-91.86 -156.71)"/><path d="M279,415.29,176.55,313.18a3.34,3.34,0,0,1,.28-5c27.59-22.1,49.2-25.63,64.26-24.4,37.44,3.05,52.74,37,94,40.16a86.7,86.7,0,0,0,36.7-5.45,3.35,3.35,0,0,1,3.55,5.5l-91.6,91.28A3.36,3.36,0,0,1,279,415.29Z" transform="translate(-91.86 -156.71)"/><path d="M283.32,476.28s-17.69,28.9-17.69,39.31c0,9.29,7.92,15.14,17.69,15.14S301,524.88,301,515.59C301,505.7,283.32,476.28,283.32,476.28Z" transform="translate(-91.86 -156.71)"/></svg>